Coordinates
version=1
nRows=17
nColumns=38
inDegrees=no

Units are S.I. units (second, meters, Newtons, ...)
If the header above contains a line with 'inDegrees', this indicates whether rotational values are in degrees (yes) or radians (no).

endheader
time	pelvis_tilt	pelvis_list	pelvis_rotation	pelvis_tx	pelvis_ty	pelvis_tz	hip_flexion_r	hip_adduction_r	hip_rotation_r	knee_angle_r	ankle_angle_r	subtalar_angle_r	mtp_angle_r	hip_flexion_l	hip_adduction_l	hip_rotation_l	knee_angle_l	ankle_angle_l	subtalar_angle_l	mtp_angle_l	lumbar_extension	lumbar_bending	lumbar_rotation	arm_flex_r	arm_add_r	arm_rot_r	elbow_flex_r	pro_sup_r	wrist_flex_r	wrist_dev_r	arm_flex_l	arm_add_l	arm_rot_l	elbow_flex_l	pro_sup_l	wrist_flex_l	wrist_dev_l
21.46	2.64763	1.414	-1.24763	0.664803	-1.13865	0.946087	0.23093	-0.0713563	-0.429141	0.376295	0.0357869	0	0	-0.250702	-0.0208699	-0.335663	0.189668	0.06318	0	0	-0.448553	-0.0834364	0.041266	1.04241	-0.361808	0.337958	0.925511	0.659934	0	0	0.759523	-0.252913	0.221643	1.48958	0.986642	0	0
21.47	2.64517	1.41065	-1.24169	0.664598	-1.13524	0.946029	0.219397	-0.0698461	-0.446626	0.345292	0.0025997	0	0	-0.261422	-0.021292	-0.333054	0.182869	0.0641671	0	0	-0.452935	-0.0782674	0.0390269	1.04865	-0.361327	0.343452	0.923778	0.669464	0	0	0.762259	-0.252805	0.218081	1.48421	0.984592	0	0
21.48	2.64744	1.41089	-1.24157	0.664679	-1.13198	0.945478	0.216493	-0.0663739	-0.450052	0.328497	-0.000507232	0	0	-0.267462	-0.0201338	-0.331682	0.178591	0.066503	0	0	-0.453819	-0.0757137	0.0375255	1.05363	-0.360464	0.346697	0.922682	0.678346	0	0	0.765876	-0.252591	0.21527	1.47739	0.983818	0	0
21.49	2.64396	1.41383	-1.23784	0.665561	-1.12883	0.944515	0.217303	-0.0540465	-0.446119	0.296904	-0.0224015	0	0	-0.270763	-0.019857	-0.331161	0.174768	0.0704639	0	0	-0.451211	-0.0750981	0.0381068	1.057	-0.358361	0.347178	0.921449	0.686761	0	0	0.769832	-0.253454	0.213199	1.47126	0.984344	0	0
21.5	2.80073	1.4038	-1.3995	0.663897	-1.127	0.946973	0.193583	-0.0848673	-0.470492	0.289291	-0.0109416	0	0	-0.293857	0.0124008	-0.33647	0.163621	0.0482724	0	0	-0.476128	-0.0935166	0.0344926	1.07139	-0.358499	0.352852	0.919883	0.688887	0	0	0.778601	-0.250604	0.206461	1.46529	0.985558	0	0
21.51	2.66084	1.4128	-1.24703	0.665185	-1.12166	0.943734	0.208674	-0.0589053	-0.456536	0.291805	-0.00446818	0	0	-0.286991	-0.0158316	-0.324173	0.162858	0.0719283	0	0	-0.454643	-0.0683794	0.0325243	1.06555	-0.356905	0.352515	0.920032	0.693514	0	0	0.774045	-0.251043	0.203916	1.45984	0.987074	0	0
21.52	2.84035	1.39242	-1.42009	0.663445	-1.11795	0.94678	0.182271	-0.0967006	-0.465142	0.329526	0.0589925	0	0	-0.326408	0.0160187	-0.318154	0.144893	0.0458067	0	0	-0.487052	-0.0863351	0.019305	1.07478	-0.356761	0.357173	0.918854	0.70283	0	0	0.782925	-0.25029	0.203247	1.45284	0.989757	0	0
21.53	2.66986	1.41768	-1.24982	0.666133	-1.11458	0.942245	0.208303	-0.0487505	-0.450579	0.265546	-0.0177477	0	0	-0.294185	-0.0144412	-0.320103	0.157394	0.0773377	0	0	-0.450697	-0.0650079	0.0296045	1.0699	-0.35462	0.352795	0.92003	0.710445	0	0	0.780005	-0.249555	0.202036	1.44617	0.991575	0	0
21.54	2.84081	1.3944	-1.41412	0.664946	-1.11074	0.94566	0.172085	-0.0746193	-0.455785	0.265044	-0.0152368	0	0	-0.335172	0.0127696	-0.316245	0.14209	0.0518223	0	0	-0.485291	-0.0809422	0.0177892	1.07824	-0.354012	0.354664	0.920624	0.716703	0	0	0.789196	-0.249343	0.202542	1.439	0.993646	0	0
21.55	2.77037	1.3965	-1.33769	0.664434	-1.10545	0.943626	0.17049	-0.070324	-0.466677	0.281764	0.00104661	0	0	-0.345452	0.00436209	-0.278114	0.125951	0.0580457	0	0	-0.475965	-0.060852	0.018758	1.0804	-0.356214	0.362028	0.92221	0.71756	0	0	0.783918	-0.24438	0.195408	1.43293	0.995013	0	0
21.56	2.70413	1.39148	-1.26995	0.664899	-1.10303	0.944682	0.159741	-0.0457397	-0.476714	0.251663	-0.0378172	0	0	-0.349554	-0.010904	-0.2801	0.128051	0.0594305	0	0	-0.48244	-0.0436878	0.0234515	1.08832	-0.355979	0.366442	0.924334	0.725968	0	0	0.786949	-0.239394	0.184286	1.42495	1.00026	0	0
21.57	2.81122	1.3982	-1.36598	0.664828	-1.09656	0.94226	0.158989	-0.0746569	-0.46677	0.28059	3.49716e-05	0	0	-0.357862	0.00902328	-0.271218	0.120364	0.0606381	0	0	-0.472748	-0.057012	0.00921353	1.08184	-0.354826	0.365579	0.928309	0.727321	0	0	0.784383	-0.240876	0.182019	1.42019	1.00198	0	0
21.58	2.55521	1.42712	-1.12378	0.667194	-1.09606	0.938922	0.194243	-0.0291072	-0.497156	0.241224	-0.0461724	0	0	-0.307734	-0.0247919	-0.285351	0.14249	0.0872381	0	0	-0.435818	-0.0279832	0.0324445	1.08671	-0.35508	0.36846	0.93305	0.731823	0	0	0.780996	-0.231982	0.16309	1.412	1.00655	0	0
21.59	2.90531	1.41672	-1.45364	0.666259	-1.08759	0.938635	0.157506	-0.0861627	-0.472839	0.261841	0.00266469	0	0	-0.350688	0.0258837	-0.26674	0.121328	0.0671903	0	0	-0.450961	-0.0673955	0.00184106	1.07766	-0.352986	0.36671	0.938011	0.73362	0	0	0.783659	-0.23877	0.17021	1.40743	1.0077	0	0
21.6	2.74914	1.40662	-1.29906	0.666307	-1.08693	0.941983	0.146061	-0.0498761	-0.50133	0.232927	-0.0501331	0	0	-0.352624	-0.00337484	-0.273624	0.129651	0.0629115	0	0	-0.467545	-0.0341839	0.0138554	1.09245	-0.354926	0.375139	0.942596	0.739574	0	0	0.788016	-0.229189	0.153076	1.39826	1.01104	0	0
21.61	2.75746	1.40597	-1.29936	0.666772	-1.08229	0.941819	0.13657	-0.0474136	-0.499437	0.224237	-0.0634431	0	0	-0.356927	-0.00570643	-0.272104	0.132264	0.0634826	0	0	-0.466907	-0.0287917	0.00956266	1.09098	-0.355444	0.377337	0.949722	0.743292	0	0	0.788244	-0.227515	0.149343	1.39047	1.01231	0	0
21.62	2.87162	1.39629	-1.39043	0.667485	-1.07402	0.940559	0.123179	-0.0660061	-0.466954	0.251666	-0.0449606	0	0	-0.383796	0.00357413	-0.256382	0.123692	0.0636076	0	0	-0.4736	-0.0385241	-0.0216462	1.0838	-0.345631	0.378028	0.956489	0.745961	0	0	0.772574	-0.237122	0.0945382	1.70597	1.01231	0	0
